# xmcd
#
# Track frame offsets:
#	150
#	14302
#	23837
#	34872
#	53002
#	63322
#	75277
#	90165
#	104747
#	117090
#	129730
#	144847
#	157995
#	172797
#
# Disc length: 2519 seconds
#
# Revision: 0
# Processed by: cddbd v1.5.2PL0 Copyright (c) Steve Scherf et al.
# Submitted via: EasyCDDAExtractor 9.1.3.1
#
DISCID=9d09d50e
DTITLE=Tibagi and Niltinho - BIS (Dois em um) - Vol. 01
DYEAR=2000
DGENRE=Country
TTITLE0=O menino da porteira
TTITLE1=Adelita
TTITLE2=Mulher de ninguem
TTITLE3=Arrependimento
TTITLE4=Amargura
TTITLE5=Adeus pra sempre
TTITLE6=Esposo apaixonado
TTITLE7=Borboleta
TTITLE8=Escravo do seu coração
TTITLE9=Contigo
TTITLE10=Couro de boi
TTITLE11=India soberana
TTITLE12=Sem a mulher, o homem não vive
TTITLE13=Milagre das rosas
EXTD=
EXTT0=
EXTT1=
EXTT2=
EXTT3=
EXTT4=
EXTT5=
EXTT6=
EXTT7=
EXTT8=
EXTT9=
EXTT10=
EXTT11=
EXTT12=
EXTT13=
PLAYORDER=
